<svg width="375" height="297" viewBox="0 0 375 297" fill="none" xmlns="http://www.w3.org/2000/svg">
<mask id="mask0_3456_830" style="mask-type:alpha" maskUnits="userSpaceOnUse" x="0" y="0" width="375" height="298">
<path d="M375 0.794434H0V297H375V0.794434Z" fill="#FEE05B"/>
</mask>
<g mask="url(#mask0_3456_830)">
<path d="M432 227.881C432 254.217 409.231 275.566 381.145 275.566C353.058 275.566 326 249.766 326 223.431C326 197.095 348.769 175.746 376.855 175.746C404.942 175.746 432 201.546 432 227.881Z" fill="white"/>
<path d="M362 245.241C362 271.577 339.231 292.926 311.145 292.926C283.058 292.926 256 267.126 256 240.791C256 214.455 278.769 193.106 306.855 193.106C334.942 193.106 362 218.906 362 245.241Z" fill="white"/>
<path d="M289 282.456C289 306.215 268.379 325.476 242.942 325.476C217.505 325.476 193 302.2 193 278.441C193 254.682 213.621 235.421 239.058 235.421C264.495 235.421 289 258.697 289 282.456Z" fill="white"/>
<path d="M207 283.541C207 307.3 186.379 326.561 160.942 326.561C135.505 326.561 111 303.285 111 279.526C111 255.767 131.621 236.506 157.058 236.506C182.495 236.506 207 259.782 207 283.541Z" fill="white"/>
<path d="M83.5 297.267C106.42 297.267 125 279.05 125 256.579C125 234.108 106.42 215.892 83.5 215.892C60.5802 215.892 42 234.108 42 256.579C42 279.05 60.5802 297.267 83.5 297.267Z" fill="white"/>
<path d="M17 283.161C47.9279 283.161 73 261.787 73 235.421C73 209.055 47.9279 187.681 17 187.681C-13.9279 187.681 -39 209.055 -39 235.421C-39 261.787 -13.9279 283.161 17 283.161Z" fill="white"/>
</g>
</svg>
